<?xml version="1.0" encoding="utf-8"?>
<!-- Generator: Adobe Illustrator 24.0.2, SVG Export Plug-In . SVG Version: 6.00 Build 0)  -->
<svg version="1.1" id="Layer_1" xmlns="http://www.w3.org/2000/svg" xmlns:xlink="http://www.w3.org/1999/xlink" x="0px" y="0px"
	 viewBox="0 0 570 70" style="enable-background:new 0 0 570 70;" xml:space="preserve">
<style type="text/css">
	.st0{fill:#1C2152;}
	.st1{fill:#145AF2;}
</style>
<g id="logo-group">
	<g id="logo-center" transform="translate(1.1368683772161603e-13 0)">
		<g>
		</g>
		<g id="slogan" transform="translate(0 0)">
		</g>
		<g>
		</g>
	</g>
</g>
<g id="title" transform="translate(0 0)">
	
		<g id="path577136" transform="translate(0 313.921) translate(231.4852375000001 38.803999999999995) scale(1.25) translate(-341.79594 49.968)">
		<path class="st0" d="M172.67-290.35H188v11.09h-27.81v-49.91h12.48v0.09H188v11.09h-15.34V-290.35z"/>
		<path class="st1" d="M175.48-304.17c0-3.72,2.92-6.74,6.53-6.74c3.61,0,6.53,3.02,6.53,6.74c0,3.72-2.92,6.74-6.53,6.74
			C178.41-297.43,175.48-300.45,175.48-304.17z"/>
	</g>
	
		<g id="path577138" transform="translate(0 313.921) translate(294.1805500000001 38.803999999999995) scale(1.25) translate(-376.95219 49.968)">
		<path class="st0" d="M237.9-304.19c-0.01,18.22-15.61,24.98-23.89,24.98h-12.43v-0.05h-6.24v-49.91h18.67
			C222.29-329.17,237.89-322.41,237.9-304.19z M224.7-304.19c-0.01-8.35-5.43-13.92-13.84-13.92h-3.04v27.83h3.04
			C219.27-290.27,224.69-295.84,224.7-304.19z"/>
	</g>
	
		<g id="path577140" transform="translate(0 313.921) translate(372.5893000000001 38.803999999999995) scale(1.25) translate(-424.67919 49.968)">
		<path class="st0" d="M285.44-329.17v29.84c0,7.56-1.84,21.46-21.18,21.46s-21.18-13.9-21.18-21.46v-29.84h12.48v27.74
			c0,11.22,4.35,12.19,8.71,12.19c4.35,0,8.71-0.98,8.71-12.19v-27.74H285.44z"/>
	</g>
	
		<g id="path577142" transform="translate(0 313.921) translate(450.7069500000001 37.274) scale(1.25) translate(-472.17331 51.192)">
		<path class="st0" d="M345.85-277.83h-13.31l-2.74-2.97c-3.7,1.88-7.9,2.94-12.35,2.94c-14.85,0-26.88-11.76-26.88-26.27
			s12.04-26.27,26.88-26.27c14.85,0,26.88,11.76,26.88,26.27c0,6.66-2.54,12.73-6.72,17.36L345.85-277.83z M331.45-304.12
			c0-7.56-6.27-13.69-14.01-13.69c-7.74,0-14.01,6.13-14.01,13.69s6.27,13.69,14.01,13.69c1.08,0,2.13-0.13,3.14-0.36l-6.81-7.39
			h13.31l1.79,1.94C330.5-298.47,331.45-301.19,331.45-304.12z"/>
	</g>
	
		<g id="path577144" transform="translate(0 313.921) translate(543.68305 38.803999999999995) scale(1.25) translate(-531.55419 49.968)">
		<path class="st0" d="M392.31-329.17v29.84c0,7.56-1.84,21.46-21.18,21.46s-21.18-13.9-21.18-21.46v-29.84h12.48v27.74
			c0,11.22,4.35,12.19,8.71,12.19c4.35,0,8.71-0.98,8.71-12.19v-27.74H392.31z"/>
	</g>
	
		<g id="path577146" transform="translate(0 313.921) translate(624.5907 38.803999999999995) scale(1.25) translate(-581.28031 49.968)">
		<path class="st0" d="M412.15-290.35h15.34v11.09h-27.81v-49.91h12.48v0.09h15.34v11.09h-15.34V-290.35z"/>
		<path class="st1" d="M414.97-304.17c0-3.72,2.92-6.74,6.53-6.74c3.61,0,6.53,3.02,6.53,6.74c0,3.72-2.92,6.74-6.53,6.74
			C417.89-297.43,414.97-300.45,414.97-304.17z"/>
	</g>
	
		<g id="path577148" transform="translate(0 313.921) translate(684.3160124999999 37.184000000000005) scale(1.25) translate(-614.06056 51.264)">
		<path class="st0" d="M468.32-294.79c0,11.55-9.08,16.91-18.8,16.91s-17.06-5.62-17.06-5.62l5.41-10.44
			c3.29,3.44,8.66,5.07,11.65,5.07c3,0,5.54-2.32,5.54-4.74c0-8.79-20.6-3.24-20.6-20.48c0-11.05,7.92-16.39,16.8-16.39
			c8.57,0,15.07,4.03,15.07,4.03l-5.02,10.11c0,0-4.2-3.37-8.11-3.37c-2.92,0-5.54,1.08-5.54,4.29
			C447.65-307.94,468.32-312.74,468.32-294.79z"/>
	</g>
	
		<g id="path577150" transform="translate(0 313.921) translate(750.8447624999999 38.803999999999995) scale(1.25) translate(-652.28356 49.968)">
		<path class="st0" d="M504.03-329.08v11.09h-10.44v38.72h-12.48v-38.72h-10.44v-11.09h10.44v-0.09h12.48v0.09H504.03z"/>
	</g>
</g>
</svg>
